<svg width="433" height="512" viewBox="0 0 433 512" fill="none" xmlns="http://www.w3.org/2000/svg">
<path d="M23.1699 484.98C14.3399 484.98 11.8099 479.93 11.8099 472.22C11.8099 469.7 12.0899 466.75 12.5099 463.81C14.4699 450.49 19.0999 442.92 30.4599 442.92C38.1699 442.92 41.8199 446.28 41.8199 452.59V455.67H49.3899C49.5299 455.67 49.5299 452.87 49.5299 452.31C49.5299 443.2 44.0599 434.65 30.4599 434.65C11.9499 434.65 4.37988 444.6 1.57988 464.37C1.15988 467.03 0.879883 469.42 0.879883 472.08C0.879883 483.72 5.36988 494.23 21.7699 494.23C34.1099 494.23 41.5399 488.2 45.7399 480.77L38.4499 475.86C33.9599 483.02 28.9199 484.98 23.1699 484.98ZM73.0799 448.39C58.3599 448.39 51.9099 455.96 49.8099 471.1C49.5299 472.92 49.3899 474.75 49.3899 476.43C49.3899 486.1 53.8799 493.95 66.4899 493.95C81.2099 493.95 87.7999 486.1 89.8999 471.24C90.1799 469.28 90.3199 467.59 90.3199 465.77C90.3199 455.82 85.5599 448.39 73.0799 448.39ZM79.2499 471.1C77.7099 482.04 74.1999 485.4 67.7499 485.4C62.5599 485.4 60.0399 483.3 60.0399 476.71C60.0399 475.17 60.1799 473.21 60.4599 471.1C61.9999 460.3 65.2299 456.94 71.8199 456.94C77.1499 456.94 79.6699 459.04 79.6699 465.63C79.6699 467.18 79.5299 469 79.2499 471.1ZM127.47 435.21L124.95 449.93C124.81 451.19 124.81 450.77 125.37 452.03C122.99 450.21 118.92 449.09 116.12 449.09C102.8 449.09 95.5099 455.12 92.9899 471.8C92.7099 473.76 92.5699 475.45 92.5699 477.13C92.5699 489.33 99.7199 493.95 109.39 493.95C113.46 493.95 117.52 494.09 120.61 491.43L121.45 496.34H129.16L138.13 435.21H127.47ZM119.9 483.02C116.25 485.12 112.75 485.68 110.65 485.68C104.76 485.68 103.22 482.6 103.22 477.83C103.22 476.01 103.5 473.9 103.78 471.52C105.6 458.76 109.67 456.52 115 456.52C118.36 456.52 121.03 457.08 123.55 458.48L119.9 483.02ZM161.4 448.39C146.82 448.39 139.95 455.4 137.57 471.1C137.29 473.06 137.15 474.89 137.15 476.57C137.15 487.37 142.62 493.81 154.81 493.81C164.2 493.81 171.21 489.88 175 482.73L166.87 479.51C164.49 483.01 161.4 485.4 155.93 485.4C150.04 485.4 147.66 483.86 147.66 478.53C147.66 477.55 147.8 476.01 147.94 476.01H176.82C177.24 471.94 177.66 469 177.66 466.62C177.66 458.63 174.58 448.39 161.4 448.39ZM166.87 467.88H149.35C151.17 463.81 154.12 457.51 160.15 457.51C164.92 457.51 167.16 460.31 167.16 464.94C167.15 465.78 167.01 467.88 166.87 467.88ZM208.37 447.41L209.35 439.28H186.78L185.8 447.41H191.69L185.24 488.21H179.35L178.37 496.34H200.94L201.92 488.21H196.03L202.48 447.41H208.37ZM254.07 459.75L257.01 451.62H249.3L243.69 452.74C240.61 450.78 236.4 449.24 232.33 449.24C220.97 449.24 211.16 454.71 211.16 467.33C211.16 470.83 212.42 473.64 213.96 475.6C211.58 476.86 209.47 478.96 209.47 481.91C209.47 483.17 209.89 484.43 210.87 485.7C206.1 488.64 203.16 493.41 203.16 498.88C203.16 509.68 214.38 511.92 223.07 511.92C233.87 511.92 246.9 509.4 246.9 495.66C246.9 490.89 243.96 487.25 235.4 485.71L220 482.74C218.18 482.46 217.9 481.9 217.9 481.06C217.9 479.8 218.6 479.24 219.86 479.24L220.84 479.38C222.94 479.8 225.33 480.08 227.85 480.08C238.93 480.08 248.88 475.31 248.88 462.84C248.88 461.02 248.6 459.9 247.76 457.93C249.16 458.63 250.84 459.61 251.55 459.61L254.07 459.75ZM232.2 492.69C235.28 493.25 236.27 494.37 236.27 496.34C236.27 502.79 229.26 503.63 224.35 503.63C216.64 503.63 213.84 501.81 213.84 497.74C213.84 494.09 214.82 492.41 217.2 489.89L232.2 492.69ZM228.84 471.8C224.21 471.8 221.69 470.12 221.69 466.19C221.69 460.3 225.05 456.8 231.08 456.8C235.85 456.8 238.23 458.76 238.23 462.69C238.23 468.58 234.87 471.8 228.84 471.8ZM282.53 448.39C278.04 448.39 274.12 450.63 269.07 454.56L268.37 451.62H259.54L253.37 496.48H264.02L268.65 462.55C271.73 460.59 275.66 457.92 278.88 457.92C282.81 457.92 284.35 459.88 284.35 463.53C284.35 464.37 284.21 467.03 284.07 468.02L280.14 496.62H290.79L294.72 467.74C294.86 466.34 295 464.09 295 462.83C295.01 454.98 291.36 448.39 282.53 448.39ZM315.2 485.12L315.34 484L319.97 451.47H302.3L301.18 459.6H308.89C308.19 459.6 307.91 460.3 307.77 461L304.55 482.59C304.41 483.57 304.27 485.81 304.27 486.66C304.27 492.27 307.35 496.19 313.52 496.19H318.99L320.25 488.06H316.89C315.62 488.21 315.2 486.1 315.2 485.12ZM322.07 435.21H311.7C311 435.21 311 432.83 311 433.67L309.6 445.17C309.46 445.87 309.46 447.41 310.16 447.41H320.53C321.23 447.41 321.23 444.61 321.23 443.91L322.63 435.08C322.77 434.23 322.77 435.21 322.07 435.21ZM343.66 485.4C341 485.4 339.73 484.28 339.73 481.9L339.87 481.76L343.23 459.75H355.43L359.08 451.62H344.36L346.88 433.67L335.66 437.17L333.7 451.47H327.25L326.13 459.6H333.7C333 463.67 332.3 461 332.16 461.84L329.22 481.19C329.08 482.03 329.08 482.73 329.08 483.57C329.08 491.14 334.69 493.94 341.42 493.94C347.59 493.94 352.64 492.12 356.56 488.89L351.65 482.86C349.13 484.28 347.44 485.4 343.66 485.4ZM382.63 448.39C368.05 448.39 361.18 455.4 358.8 471.1C358.52 473.06 358.38 474.89 358.38 476.57C358.38 487.37 363.85 493.81 376.04 493.81C385.43 493.81 392.44 489.88 396.23 482.73L388.24 479.51C385.86 483.01 382.77 485.4 377.3 485.4C371.41 485.4 369.03 483.86 369.03 478.53C369.03 477.55 369.17 476.01 369.31 476.01H398.19C398.61 471.94 399.03 469 399.03 466.62C398.9 458.63 395.95 448.39 382.63 448.39ZM388.24 467.88H370.72C372.54 463.81 375.49 457.51 381.52 457.51C386.29 457.51 388.53 460.31 388.53 464.94C388.38 465.78 388.38 467.88 388.24 467.88ZM428.34 448.39C424.55 448.39 420.91 450.63 417.26 454L416.56 451.48H407.73L401.56 496.34H412.21L416.98 461.71C419.78 460.03 423.01 458.63 425.95 458.63C427.91 458.63 429.74 458.35 431.42 458.63L432.82 449.38C431.42 448.95 429.88 448.39 428.34 448.39ZM157.2 403.11C133.09 392.74 110.37 366.1 110.37 338.9C110.37 309.32 129.02 284.08 152.43 267.68C149.63 278.33 148.08 288.01 155.09 297.4C161.54 306.23 172.9 310.44 183.55 308.2C208.51 302.73 209.63 275.25 194.91 259.27C180.33 243.43 166.17 225.48 171.64 202.63C174.44 191.13 181.45 180.34 190.43 172.63C183.56 190.72 203.05 208.52 215.95 217.49C238.24 232.91 262.78 244.55 283.38 262.63C304.97 281.56 320.95 307.35 317.73 337.07C314.23 369.32 288.57 391.89 259.83 403.1C320.68 389.64 383.48 342.53 384.75 274.96C385.87 219.44 347.74 176.82 300.63 152.29L298.11 150.89C299.37 153.97 299.79 156.64 299.79 159.16C300.21 157.34 300.49 155.51 300.63 153.69C300.63 156.07 300.35 158.18 299.79 160.28L299.93 159.16C299.23 162.1 297.97 164.91 296.43 167.43L297.13 166.73C287.74 182.29 262.22 185.66 249.6 169.53C229.41 143.59 250.02 115.55 252.96 87.94C256.61 53.45 235.01 19.94 208.1 -0.0999756C222.82 23.73 203.47 55.42 187.77 73.08C172.63 90.18 154.26 104.48 137.58 120.05C119.63 136.73 102.53 154.4 87.8099 174.03C58.3699 213.29 40.4199 262.63 53.5999 311.7C66.9099 360.91 109.39 392.17 157.2 403.11Z" fill="#EE4323"/>
</svg>
