<svg width="512" height="149" viewBox="0 0 512 149" fill="none" xmlns="http://www.w3.org/2000/svg">
<path d="M3.3 115.6V58.6H74.4V55.3H3.3V3.3H79V0H0V119H79.6V115.7H3.3V115.6ZM143.8 33.3L114.3 72.1L85.5 33.3H81.2L112.4 74.6L78.2 118.9H82.2L114.4 77.1L146.7 118.9H150.9L116.6 74.6L147.9 33.3H143.8ZM160.8 148.2V94.9H161.1C163.1 102.7 167 108.9 172.9 113.6C178.8 118.3 186.3 120.7 195.4 120.7C201.3 120.7 206.5 119.5 211.1 117.1C215.7 114.7 219.5 111.5 222.5 107.4C225.6 103.3 227.9 98.5 229.5 93.1C231.1 87.7 231.9 81.9 231.9 75.9C231.9 69.5 231.1 63.5 229.4 58.1C227.7 52.7 225.3 47.9 222.2 43.9C219 39.9 215.2 36.8 210.7 34.6C206.2 32.4 201.1 31.3 195.5 31.3C191.2 31.3 187.1 31.9 183.4 33.2C179.7 34.5 176.4 36.3 173.5 38.6C170.6 40.9 168.1 43.7 166 46.8C163.9 50 162.3 53.4 161.2 57.2H160.9V33.2H157.6V148.2H160.8ZM195.4 117.6C185 117.6 176.6 114 170.2 106.9C163.9 99.7 160.7 89.4 160.7 76C160.7 70.4 161.5 65.2 163 60.2C164.6 55.2 166.8 50.8 169.7 47C172.6 43.2 176.3 40.2 180.6 38C184.9 35.8 189.8 34.7 195.3 34.7C200.9 34.7 205.7 35.8 209.9 38C214.1 40.2 217.5 43.2 220.2 47.1C222.9 50.9 225 55.3 226.4 60.3C227.8 65.2 228.5 70.5 228.5 76C228.5 81 227.9 86 226.6 90.9C225.3 95.8 223.4 100.3 220.7 104.2C218 108.1 214.6 111.4 210.5 113.9C206.3 116.3 201.3 117.6 195.4 117.6ZM250.3 118.9V70.4C250.3 65.7 251 61.2 252.3 56.7C253.6 52.3 255.7 48.3 258.5 45C261.3 41.6 264.8 38.9 269.1 37C273.4 35.1 278.5 34.3 284.3 34.6V31.3C279.2 31.2 274.7 31.7 270.9 33C267.1 34.3 263.8 35.9 261 38C258.2 40.1 256 42.6 254.3 45.4C252.6 48.2 251.4 51.3 250.6 54.5H250.3V33.3H247V118.9H250.3ZM288.4 76.8H360C360.2 70.9 359.6 65.2 358.3 59.8C356.9 54.4 354.7 49.5 351.6 45.3C348.5 41.1 344.6 37.7 339.8 35.1C335 32.5 329.2 31.3 322.6 31.3C317.8 31.3 313.2 32.3 308.6 34.3C304 36.3 300 39.2 296.6 43C293.2 46.8 290.4 51.5 288.3 57.1C286.2 62.7 285.1 69 285.1 76.1C285.1 82.4 285.8 88.3 287.3 93.8C288.8 99.3 291 104.1 294 108.1C297 112.1 300.9 115.3 305.6 117.5C310.3 119.7 316 120.8 322.7 120.7C332.5 120.7 340.7 118 347.4 112.5C354.1 107 358 99.3 359.2 89.3H355.9C354.5 98.7 350.8 105.8 344.8 110.5C338.9 115.2 331.4 117.6 322.4 117.6C316.3 117.6 311.1 116.5 306.9 114.4C302.7 112.3 299.2 109.4 296.6 105.7C293.9 102 292 97.7 290.7 92.8C289.2 87.9 288.5 82.5 288.4 76.8ZM356.7 73.4H288.4C288.7 67.4 289.8 62 291.7 57.2C293.6 52.4 296.1 48.3 299.1 45C302.2 41.6 305.7 39 309.8 37.3C313.9 35.6 318.2 34.6 322.9 34.6C328.5 34.6 333.3 35.6 337.6 37.7C341.8 39.8 345.3 42.6 348.2 46.1C351 49.7 353.2 53.8 354.6 58.5C356 63.2 356.7 68.2 356.7 73.4ZM429.2 58.6H432.5C432.5 49 429.7 42.1 424.2 37.8C418.6 33.5 411.1 31.3 401.5 31.3C396.2 31.3 391.7 32 388 33.3C384.3 34.6 381.3 36.4 379 38.5C376.7 40.6 375 42.9 374 45.5C373 48.1 372.5 50.5 372.5 52.8C372.5 57.5 373.3 61.2 375 64C376.7 66.8 379.3 68.9 382.8 70.5C385.2 71.6 388 72.6 391.1 73.5C394.2 74.4 397.8 75.3 401.9 76.3C405.6 77.2 409.2 78.1 412.7 79C416.3 79.9 419.4 81.1 422.1 82.6C424.8 84.1 427 86 428.8 88.3C430.6 90.6 431.4 93.7 431.4 97.5C431.4 101.2 430.5 104.3 428.8 106.8C427.1 109.3 424.9 111.4 422.2 113C419.5 114.6 416.6 115.8 413.3 116.5C410 117.2 406.8 117.6 403.7 117.6C393.6 117.6 385.8 115.3 380.5 110.9C375.1 106.4 372.4 99.3 372.4 89.7H369.1C369.1 100.5 372 108.4 377.8 113.4C383.6 118.4 392.3 120.9 403.7 120.9C407.4 120.9 411.1 120.5 414.8 119.7C418.5 118.9 421.9 117.5 424.8 115.6C427.7 113.7 430.1 111.3 432 108.3C433.8 105.3 434.7 101.6 434.7 97.3C434.7 93.2 433.9 89.9 432.3 87.3C430.7 84.7 428.6 82.6 426 81C423.4 79.4 420.4 78 417.2 77.1C413.9 76.2 410.6 75.2 407.3 74.4C402.6 73.2 398.6 72.1 395.1 71.2C391.6 70.3 388.4 69.3 385.4 68C382.5 66.8 380.2 65 378.5 62.8C376.8 60.6 375.9 57.3 375.9 53.1C375.9 52.3 376.1 50.9 376.6 48.9C377.1 46.9 378.1 44.9 379.8 42.8C381.5 40.7 384 38.9 387.5 37.3C390.9 35.7 395.7 34.9 401.7 34.9C405.8 34.9 409.6 35.3 412.9 36.2C416.2 37.1 419.2 38.5 421.6 40.4C424 42.3 425.9 44.8 427.3 47.8C428.7 50.8 429.2 54.3 429.2 58.6ZM506.3 58.6H509.6C509.6 49 506.8 42.1 501.3 37.8C495.7 33.5 488.2 31.3 478.6 31.3C473.3 31.3 468.8 32 465.1 33.3C461.4 34.6 458.4 36.4 456.1 38.5C453.8 40.6 452.1 42.9 451.1 45.5C450.1 48.1 449.6 50.5 449.6 52.8C449.6 57.5 450.4 61.2 452.1 64C453.8 66.8 456.4 68.9 459.9 70.5C462.3 71.6 465.1 72.6 468.2 73.5C471.3 74.4 474.9 75.3 479 76.3C482.7 77.2 486.3 78.1 489.8 79C493.4 79.9 496.5 81.1 499.2 82.6C501.9 84.1 504.1 86 505.9 88.3C507.7 90.6 508.5 93.7 508.5 97.5C508.5 101.2 507.6 104.3 505.9 106.8C504.2 109.3 502 111.4 499.3 113C496.6 114.6 493.7 115.8 490.4 116.5C487.1 117.2 483.9 117.6 480.8 117.6C470.7 117.6 462.9 115.3 457.6 110.9C452.2 106.4 449.5 99.3 449.5 89.7H446.2C446.2 100.5 449.1 108.4 454.9 113.4C460.7 118.4 469.4 120.9 480.8 120.9C484.5 120.9 488.2 120.5 491.9 119.7C495.6 118.9 499 117.5 501.9 115.6C504.8 113.7 507.2 111.3 509.1 108.3C510.9 105.3 511.8 101.6 511.8 97.3C511.8 93.2 511 89.9 509.4 87.3C507.8 84.7 505.7 82.6 503.1 81C500.5 79.4 497.5 78 494.3 77.1C491 76.2 487.7 75.2 484.4 74.4C479.7 73.2 475.7 72.1 472.2 71.2C468.7 70.3 465.5 69.3 462.5 68C459.6 66.8 457.3 65 455.6 62.8C453.9 60.6 453 57.3 453 53.1C453 52.3 453.2 50.9 453.7 48.9C454.2 46.9 455.2 44.9 456.9 42.8C458.6 40.7 461.1 38.9 464.6 37.3C468 35.7 472.8 34.9 478.8 34.9C482.9 34.9 486.7 35.3 490 36.2C493.3 37.1 496.3 38.5 498.7 40.4C501.1 42.3 503 44.8 504.4 47.8C505.8 50.8 506.3 54.3 506.3 58.6Z" fill="#222222"/>
</svg>
