<svg width="50" height="19" viewBox="0 0 50 19" fill="none" xmlns="http://www.w3.org/2000/svg">
<g clip-path="url(#clip0_6_241)">
<path d="M3.77315 5.64751C3.67578 5.64751 3.65144 5.59882 3.70012 5.52579L4.21132 4.86854C4.26001 4.79551 4.38172 4.74683 4.47909 4.74683H13.1695C13.2668 4.74683 13.2912 4.81985 13.2425 4.89288L12.8287 5.52579C12.78 5.59882 12.6583 5.67185 12.5852 5.67185L3.77315 5.64751Z" fill="#00ACD7"/>
<path d="M0.097371 7.88704C0 7.88704 -0.0243427 7.83835 0.0243427 7.76533L0.53554 7.10807C0.584226 7.03504 0.70594 6.98636 0.803311 6.98636H11.9036C12.001 6.98636 12.0497 7.05939 12.0253 7.13241L11.8306 7.71664C11.8062 7.81401 11.7089 7.8627 11.6115 7.8627L0.097371 7.88704Z" fill="#00ACD7"/>
<path d="M5.98836 10.1266C5.89099 10.1266 5.86665 10.0535 5.91533 9.98052L6.25613 9.37195C6.30482 9.29892 6.40219 9.22589 6.49956 9.22589H11.3681C11.4655 9.22589 11.5142 9.29892 11.5142 9.39629L11.4655 9.98052C11.4655 10.0779 11.3681 10.1509 11.2951 10.1509L5.98836 10.1266Z" fill="#00ACD7"/>
<path d="M31.256 5.20934C29.7224 5.59883 28.6757 5.89094 27.1665 6.28042C26.8013 6.37779 26.777 6.40214 26.4605 6.03699C26.0954 5.62317 25.8276 5.3554 25.3164 5.11197C23.7828 4.35735 22.2979 4.57643 20.9104 5.47711C19.2551 6.54819 18.4031 8.13047 18.4274 10.1022C18.4518 12.0497 19.7906 13.6563 21.7137 13.924C23.369 14.1431 24.7565 13.5589 25.852 12.3174C26.071 12.0497 26.2658 11.7575 26.5092 11.4167C25.6329 11.4167 24.5374 11.4167 21.8111 11.4167C21.2999 11.4167 21.1781 11.1003 21.3485 10.6865C21.665 9.93184 22.2492 8.66601 22.59 8.0331C22.6631 7.88704 22.8335 7.64362 23.1986 7.64362C24.4401 7.64362 29.0165 7.64362 32.0594 7.64362C32.0107 8.30087 32.0107 8.95813 31.9133 9.61538C31.6455 11.3681 30.9883 12.9747 29.9172 14.3866C28.1645 16.6991 25.8763 18.1353 22.9795 18.5248C20.5939 18.8413 18.3787 18.3788 16.4313 16.9182C14.6299 15.555 13.6076 13.7536 13.3398 11.5141C13.0233 8.86075 13.8023 6.47516 15.4089 4.38169C17.1372 2.11781 19.4255 0.681591 22.2249 0.170393C24.5131 -0.243433 26.7039 0.0243369 28.6757 1.36319C29.9659 2.21518 30.8909 3.38364 31.4995 4.79552C31.6455 5.0146 31.5482 5.13631 31.256 5.20934Z" fill="#00ACD7"/>
<path d="M39.3134 18.6709C37.0982 18.6222 35.0778 17.9893 33.3738 16.5287C31.9376 15.2872 31.0369 13.705 30.7448 11.8306C30.3066 9.07983 31.0612 6.64556 32.7165 4.47905C34.4936 2.14215 36.6357 0.925012 39.5325 0.413814C42.0155 -0.0243555 44.3524 0.219072 46.4702 1.65529C48.3933 2.9698 49.5861 4.74682 49.9025 7.08373C50.3164 10.37 49.367 13.0477 47.1031 15.3359C45.4965 16.9669 43.5247 17.9893 41.2609 18.4518C40.6036 18.5735 39.9463 18.5978 39.3134 18.6709ZM45.107 8.8364C45.0827 8.51995 45.0827 8.27652 45.034 8.03309C44.5958 5.62316 42.3806 4.25997 40.0681 4.79551C37.8042 5.30671 36.3436 6.74293 35.8081 9.03115C35.3699 10.9299 36.2949 12.853 38.0476 13.6319C39.3865 14.2162 40.7253 14.1431 42.0155 13.4859C43.9386 12.4878 44.9853 10.9299 45.107 8.8364Z" fill="#00ACD7"/>
</g>
<defs>
<clipPath id="clip0_6_241">
<rect width="50" height="18.6709" fill="white"/>
</clipPath>
</defs>
</svg>
