<svg width="378" height="512" viewBox="0 0 378 512" fill="none" xmlns="http://www.w3.org/2000/svg">
<path d="M121.8 396C121.8 396 102.2 407.4 135.7 411.2C176.3 415.8 197 415.2 241.7 406.7C241.7 406.7 253.5 414.1 269.9 420.5C169.7 463.4 43.1001 418 121.8 396Z" fill="#5382A1"/>
<path d="M109.6 339.9C109.6 339.9 87.7002 356.1 121.2 359.6C164.5 364.1 198.8 364.4 258 353C258 353 266.2 361.3 279.1 365.8C157.8 401.3 22.8002 368.7 109.6 339.9Z" fill="#5382A1"/>
<path d="M212.8 244.8C237.5 273.2 206.3 298.8 206.3 298.8C206.3 298.8 269 266.4 240.2 225.9C213.3 188.1 192.7 169.3 304.3 104.6C304.4 104.6 129.1 148.4 212.8 244.8Z" fill="#E76F00"/>
<path d="M345.4 437.4C345.4 437.4 359.9 449.3 329.5 458.6C271.6 476.1 88.7001 481.4 37.9001 459.3C19.6001 451.4 53.9001 440.3 64.7001 438C75.9001 435.6 82.4001 436 82.4001 436C62.1001 421.7 -48.8999 464.1 26.0001 476.2C230.2 509.4 398.4 461.3 345.4 437.4Z" fill="#5382A1"/>
<path d="M131.2 281.8C131.2 281.8 38.1001 303.9 98.2001 311.9C123.6 315.3 174.2 314.5 221.3 310.6C259.8 307.4 298.5 300.4 298.5 300.4C298.5 300.4 284.9 306.2 275.1 312.9C180.6 337.8 -1.89995 326.2 50.6001 300.8C95.1001 279.4 131.2 281.8 131.2 281.8Z" fill="#5382A1"/>
<path d="M298.1 375.1C394.2 325.2 349.7 277.2 318.7 283.7C311.1 285.3 307.7 286.7 307.7 286.7C307.7 286.7 310.5 282.3 315.9 280.4C377.2 258.8 424.4 344 296.1 377.7C296.2 377.6 297.7 376.3 298.1 375.1Z" fill="#5382A1"/>
<path d="M240.2 0C240.2 0 293.4 53.2 189.7 135C106.6 200.6 170.7 238.1 189.7 280.8C141.2 237 105.6 198.5 129.5 162.6C164.6 110.1 261.7 84.5 240.2 0Z" fill="#E76F00"/>
<path d="M140.7 510.4C232.9 516.3 374.5 507.1 377.8 463.5C377.8 463.5 371.4 480 301.6 493.2C222.9 508 125.8 506.3 68.3 496.8C68.3 496.7 80.1 506.5 140.7 510.4Z" fill="#5382A1"/>
</svg>
