<svg width="512" height="309" viewBox="0 0 512 309" fill="none" xmlns="http://www.w3.org/2000/svg">
<path d="M120.8 80.6H217.4V88.3H129.7V146.1H212.2V153.8H129.7V217.2H218.4V224.9H120.8V80.6ZM226 80.6H236.3L281.8 144L328.3 80.6L391.5 0L287.6 150.7L341.1 224.8H330.4L281.7 157.3L232.8 224.8H222.3L276.2 150.7L226 80.6ZM344.9 88.3V80.6H454.9V88.3H404.2V224.8H395.3V88.3H344.9ZM0 80.6H11.1L163.7 308.9L100.6 224.8L9.3 91.5L8.9 224.8H0V80.6ZM454.1 214.8C452.3 214.8 450.9 213.4 450.9 211.6C450.9 209.8 452.3 208.4 454.1 208.4C455.9 208.4 457.3 209.8 457.3 211.6C457.2 213.4 455.9 214.8 454.1 214.8ZM462.8 206.4H467.5C467.6 209 469.4 210.7 472.2 210.7C475.3 210.7 477 208.8 477 205.4V183.4H481.8V205.4C481.8 211.7 478.2 215.3 472.2 215.3C466.6 215.2 462.8 211.7 462.8 206.4ZM488.2 206.1H493C493.4 209.1 496.3 210.9 500.4 210.9C504.3 210.9 507.1 208.9 507.1 206.1C507.1 203.7 505.3 202.3 501.2 201.3L497.2 200.3C491.6 199 489 196.3 489 191.7C489 186.2 493.5 182.5 500.3 182.5C506.6 182.5 511.2 186.2 511.5 191.4H506.8C506.3 188.5 503.9 186.7 500.2 186.7C496.4 186.7 493.8 188.5 493.8 191.3C493.8 193.5 495.4 194.8 499.5 195.7L502.9 196.5C509.3 198 511.9 200.6 511.9 205.3C511.9 211.3 507.3 215 499.9 215C493.1 215.2 488.5 211.7 488.2 206.1Z" fill="black"/>
</svg>
