<svg width="512" height="88" viewBox="0 0 512 88" fill="none" xmlns="http://www.w3.org/2000/svg">
<path fill-rule="evenodd" clip-rule="evenodd" d="M203.8 26.2C204.5 26.9 204.9 27.9 204.8 28.9V81.2C204.8 82.3 204.4 83.4 203.6 84.2C202.8 85 201.7 85.5 200.6 85.4C200 85.4 199.3 85.3 198.8 85.1C198.3 84.9 197.8 84.6 197.4 84.2L163.5 40.1V81.6C163.5 82.6 163.1 83.6 162.4 84.3C161.7 85 160.7 85.4 159.7 85.4C158.7 85.4 157.7 85 157 84.3C156.3 83.6 155.9 82.6 156 81.6V29.2C156 28.1 156.4 27 157.2 26.2C158 25.4 159 25 160.1 25C160.8 25 161.5 25.1 162.1 25.4C162.7 25.6 163.2 26 163.6 26.5L197.3 70.7V28.8C197.3 27.8 197.7 26.8 198.4 26.1C199.1 25.4 200.1 25 201.1 25C202.1 25.1 203.1 25.5 203.8 26.2ZM273.3 26.2C274 27 274.4 28.1 274.4 29.2V62.3C274.5 66.6 273.4 70.8 271.4 74.5C269.5 78 266.6 81 263.1 83C259.5 85.1 255.4 86.2 251.2 86.1C247 86.2 242.8 85.1 239.1 83.1C235.6 81.1 232.7 78.2 230.7 74.6C228.7 70.8 227.6 66.6 227.7 62.4V29.3C227.7 28.2 228.1 27.1 228.9 26.3C229.7 25.5 230.8 25.1 232 25.1C233.1 25.1 234.1 25.5 234.9 26.3C235.7 27.1 236.1 28.1 236.1 29.2V62.3C236.1 65.1 236.8 67.9 238.2 70.4C240.8 75.1 245.8 77.9 251.1 77.9C253.8 77.9 256.4 77.2 258.8 75.9C261.2 74.6 263.1 72.7 264.5 70.4C265.9 68 266.6 65.2 266.6 62.3V29.2C266.6 28.1 266.9 27.1 267.6 26.2C268.3 25.4 269.4 24.9 270.5 25C271.6 25 272.6 25.4 273.3 26.2ZM339.6 79.2C340.1 79.9 340.4 80.8 340.4 81.6C340.4 82.7 340 83.8 339.2 84.5C338.4 85.2 337.4 85.6 336.4 85.6C335.1 85.7 333.8 85 333 83.9L316.3 61.6L299.9 83.9C299.2 85 297.9 85.7 296.5 85.7C295.5 85.7 294.6 85.3 293.9 84.6C293.2 84 292.8 83.1 292.8 82.2C292.8 81.2 293.2 80.2 293.8 79.4L311.5 55.4L293.8 31.5C293.2 30.8 292.9 29.9 292.9 29.1C292.9 28 293.3 26.9 294.1 26.2C294.9 25.4 295.9 25 297 25C297.6 25 298.3 25.2 298.8 25.4C299.4 25.7 299.9 26.1 300.3 26.7L316.8 48.9L333.2 26.9C333.9 25.8 335.1 25.1 336.5 25C337.5 25 338.5 25.5 339.2 26.2C340 26.9 340.4 27.8 340.4 28.8C340.4 29.7 340.1 30.5 339.5 31.2L321.5 55.1L339.6 79.2ZM401.8 26.2C402.6 26.9 403.1 28 403 29.1C403 30.2 402.6 31.2 401.8 31.9C401 32.6 399.9 33 398.8 32.9H383.5V81.2C383.5 82.3 383.1 83.4 382.3 84.1C380.5 85.7 377.8 85.7 376 84.1C375.2 83.3 374.8 82.3 374.8 81.2V32.9H359.5C358.4 32.9 357.3 32.6 356.5 31.8C355.7 31.1 355.3 30 355.3 28.9C355.3 27.8 355.7 26.8 356.5 26.1C357.3 25.4 358.4 25 359.5 25H398.9C399.9 25.1 400.9 25.5 401.8 26.2Z" fill="#2F495E"/>
<path fill-rule="evenodd" clip-rule="evenodd" d="M420.6 83.8999C417.8 82.2999 415.5 79.9999 413.9 77.2999C413.4 76.5999 413.1 75.8 413.1 75C413.1 73.9 413.6 72.9 414.4 72.2C415.1 71.5 416.1 71 417.1 71C418.6 71.1 420 71.9 421 73.2C422.9 76.3 426.4 78.2 430 78.2C433 78.3 435.9 77.1 438 75C440.1 73 441.3 70.1 441.3 67.2V29.3999C441.3 28.2999 441.8 27.2 442.6 26.5C443.4 25.7 444.5 25.3 445.6 25.3C446.7 25.2 447.8 25.7 448.7 26.5C449.5 27.3 449.9 28.4 449.9 29.5V67.2999C449.9 70.6999 449 73.9999 447.3 76.8999C445.6 79.7999 443.1 82.1999 440.2 83.8999C437.1 85.5999 433.6 86.5 430.1 86.5C426.7 86.3 423.5 85.4999 420.6 83.8999ZM479.8 84.5C476.4 83.2 473.3 81.2999 470.6 78.7999C469.5 77.9999 468.8 76.6999 468.8 75.2999C468.8 74.1999 469.3 73.2 470 72.5C470.7 71.7 471.8 71.2999 472.8 71.2999C473.7 71.2999 474.6 71.6 475.2 72.2C477.3 74.2 479.7 75.7999 482.3 76.8999C484.9 77.9999 487.8 78.4999 490.6 78.3999C493.8 78.4999 497 77.5999 499.8 75.8999C502.1 74.5999 503.5 72.2 503.5 69.6C503.5 66.8 502.1 64.2 499.8 62.7C496.4 60.7 492.6 59.3 488.7 58.6C482.8 57.4 478.2 55.4 475 52.6C471.8 49.8 470.2 46 470.2 41.2C470.1 38 471.1 34.9 472.9 32.2C474.7 29.6 477.3 27.5 480.2 26.3C483.6 24.9 487.2 24.2 490.9 24.2C494.3 24.2 497.7 24.7999 501 25.8999C503.9 26.8999 506.5 28.4 508.7 30.5C509.9 31.4 510.6 32.7 510.7 34.2C510.7 35.2 510.3 36.2 509.5 37C508.8 37.8 507.8 38.2 506.7 38.2C506 38.2 505.3 38 504.7 37.5C502.9 35.8 500.8 34.5 498.5 33.7C496.1 32.7 493.6 32.2 491 32.2C487.8 32 484.6 32.9 481.8 34.6C479.7 36 478.4 38.3999 478.4 40.8999C478.4 43.4999 479.7 45.8 481.8 47.2C484.9 49 488.4 50.3 491.9 51C495.7 51.7 499.4 52.8999 502.9 54.3999C505.6 55.5999 507.9 57.4999 509.5 59.8999C511.2 62.6999 512 65.9 511.8 69.1C511.8 72.3 510.9 75.4 509 78C507 80.7 504.4 82.7 501.4 84C498.1 85.5 494.5 86.2 490.8 86.2C487.2 86.4 483.4 85.8 479.8 84.5Z" fill="#01C58E"/>
<path fill-rule="evenodd" clip-rule="evenodd" d="M35.8 84.7C35.7 84.5 35.6 84.4 35.6 84.2C35.1 83.1 35 81.9 35.2 80.7H7.30004L48.6 7.99995L62.2 31.8L66.1 24.8L54.3 3.99995C54 3.39995 52 0.199951 48.5 0.199951C46.9 0.199951 44.7 0.89996 42.9 4.09996L1.10004 77.7999C0.700037 78.3999 -0.999963 81.8 0.700037 84.7C1.50004 86 3.10004 87.7 6.80004 87.7H41.8C38.3 87.6 36.6 86.1 35.8 84.7Z" fill="#01C58E"/>
<path fill-rule="evenodd" clip-rule="evenodd" d="M116.3 77.7999L82.0002 17.1999C81.6002 16.5999 79.7002 13.2999 76.2002 13.2999C74.6002 13.2999 72.4002 13.9999 70.6002 17.0999L66.2002 24.8999L70.2002 31.8999L76.3002 21.0999L110.3 80.7999H97.3002C97.5002 81.7999 97.4002 82.7999 97.0002 83.6999C96.9002 83.8999 96.8002 84.0999 96.7002 84.2999L96.6002 84.4999C94.9002 87.4999 91.1002 87.5999 90.4002 87.5999H110.6C111.3 87.5999 115.1 87.3999 116.8 84.4999C117.6 83.1999 118.2 80.8999 116.3 77.7999Z" fill="#108775"/>
<path fill-rule="evenodd" clip-rule="evenodd" d="M96.6001 84.5L96.7001 84.3C96.8001 84.1 96.9001 83.9 97.0001 83.7C97.3001 82.8 97.4001 81.7 97.3001 80.8C97.1001 79.7 96.7001 78.7 96.2001 77.8L70.2001 32L66.2001 25L62.2001 32L36.2001 77.8C35.7001 78.7 35.4001 79.8 35.2001 80.8C35.0001 82 35.1001 83.2 35.6001 84.3C35.7001 84.5 35.7001 84.6 35.8001 84.8C36.6001 86.1 38.2001 87.8 41.9001 87.8H90.4001C91.1001 87.6 94.9001 87.5 96.6001 84.5ZM66.1001 38.9L89.9001 80.8H42.3001L66.1001 38.9Z" fill="#2F495E"/>
</svg>
