<svg width="512" height="270" viewBox="0 0 512 270" fill="none" xmlns="http://www.w3.org/2000/svg">
<mask id="mask0_568_156" style="mask-type:luminance" maskUnits="userSpaceOnUse" x="0" y="0" width="512" height="270">
<path d="M256 269.33C397.4 269.33 512 209.01 512 134.67C512 60.33 397.4 0 256 0C114.6 0 0 60.32 0 134.66C0 209 114.6 269.33 256 269.33Z" fill="white"/>
</mask>
<g mask="url(#mask0_568_156)">
<mask id="mask1_568_156" style="mask-type:luminance" maskUnits="userSpaceOnUse" x="-1" y="0" width="514" height="270">
<path d="M512.56 0.839966H-0.419922V269.89H512.56V0.839966Z" fill="white"/>
</mask>
<g mask="url(#mask1_568_156)">
<path d="M256 269.33C397.4 269.33 512 209.01 512 134.67C512 60.33 397.4 0 256 0C114.6 0 0 60.32 0 134.66C0 209 114.6 269.33 256 269.33Z" fill="#231F20"/>
</g>
<mask id="mask2_568_156" style="mask-type:luminance" maskUnits="userSpaceOnUse" x="-1" y="0" width="514" height="270">
<path d="M512.56 0.839966H-0.419922V269.89H512.56V0.839966Z" fill="white"/>
</mask>
<g mask="url(#mask2_568_156)">
<path d="M432.32 235.24C328.52 389.12 119.51 429.8 -34.3699 326C-188.25 222.2 -228.93 13.19 -125.12 -140.69C-21.3099 -294.57 187.83 -335.11 341.71 -231.45C495.45 -127.65 536.13 81.36 432.32 235.24Z" fill="#231F20"/>
</g>
<mask id="mask3_568_156" style="mask-type:luminance" maskUnits="userSpaceOnUse" x="-1" y="0" width="514" height="270">
<path d="M512.56 0.839966H-0.419922V269.89H512.56V0.839966Z" fill="white"/>
</mask>
<g mask="url(#mask3_568_156)">
<path d="M512.56 0.839966H-0.419922V269.89H512.56V0.839966Z" fill="url(#paint0_radial_568_156)"/>
</g>
<mask id="mask4_568_156" style="mask-type:luminance" maskUnits="userSpaceOnUse" x="-1" y="0" width="514" height="270">
<path d="M512.56 0.839966H-0.419922V269.89H512.56V0.839966Z" fill="white"/>
</mask>
<g mask="url(#mask4_568_156)">
<path d="M293.03 141.4C241.13 218.27 136.62 238.61 59.7502 186.71C-17.1198 134.81 -37.4498 30.3 14.4502 -46.57C66.3502 -123.44 170.85 -143.78 247.72 -91.88C324.59 -40.1201 344.93 64.39 293.03 141.4Z" fill="#4A659B"/>
</g>
<mask id="mask5_568_156" style="mask-type:luminance" maskUnits="userSpaceOnUse" x="-1" y="0" width="514" height="270">
<path d="M512.56 0.839966H-0.419922V269.89H512.56V0.839966Z" fill="white"/>
</mask>
<g mask="url(#mask5_568_156)">
<path d="M512.56 0.839966H-0.419922V269.89H512.56V0.839966Z" fill="url(#paint1_radial_568_156)"/>
</g>
</g>
<mask id="mask6_568_156" style="mask-type:luminance" maskUnits="userSpaceOnUse" x="0" y="0" width="512" height="270">
<path d="M256 269.33C397.4 269.33 512 209.01 512 134.67C512 60.33 397.4 0 256 0C114.6 0 0 60.32 0 134.66C0 209 114.6 269.33 256 269.33Z" fill="white"/>
</mask>
<g mask="url(#mask6_568_156)">
<mask id="mask7_568_156" style="mask-type:luminance" maskUnits="userSpaceOnUse" x="-1" y="0" width="514" height="270">
<path d="M512.56 0.839966H-0.419922V269.89H512.56V0.839966Z" fill="white"/>
</mask>
<g mask="url(#mask7_568_156)">
<path d="M256 259.37C391.93 259.37 502.04 203.54 502.04 134.67C502.04 65.8 391.93 9.95996 256 9.95996C120.07 9.95996 9.95996 65.79 9.95996 134.66C9.95996 203.53 120.07 259.37 256 259.37Z" fill="#617CBE"/>
</g>
<mask id="mask8_568_156" style="mask-type:luminance" maskUnits="userSpaceOnUse" x="-1" y="0" width="514" height="270">
<path d="M512.56 0.839966H-0.419922V269.89H512.56V0.839966Z" fill="white"/>
</mask>
<g mask="url(#mask8_568_156)">
<path d="M305.8 174.92L318 112.08C320.81 97.91 318.42 87.39 311.13 80.66C304.12 74.21 292.19 71.12 274.66 71.12H253.48L259.51 39.98C259.79 38.86 259.37 37.6 258.67 36.61C257.97 35.63 256.85 35.21 255.58 35.21H226.54C224.58 35.21 223.03 36.61 222.61 38.44L209.7 105.07C208.58 97.64 205.63 91.18 201 85.85C192.44 76.03 178.98 71.12 160.74 71.12H104.21C102.25 71.12 100.7 72.52 100.28 74.35L74.0601 209.29C73.7801 210.41 74.2001 211.67 74.9001 212.66C75.6001 213.64 76.7201 214.06 77.9901 214.06H107.45C109.41 214.06 110.96 212.66 111.38 210.83L117.69 178.15H139.57C151.07 178.15 160.75 176.89 168.19 174.5C175.91 171.98 182.92 167.77 189.23 161.88C194.28 157.25 198.49 152.06 201.71 146.45L196.52 173.38C196.24 174.5 196.66 175.76 197.36 176.75C198.06 177.73 199.18 178.15 200.45 178.15H229.63C231.59 178.15 233.14 176.75 233.56 174.92L248 100.86H268.06C276.62 100.86 279.14 102.54 279.7 103.24C280.26 103.94 281.66 106.19 280.12 113.62L268.48 173.38C268.2 174.5 268.62 175.76 269.32 176.75C270.02 177.73 271.14 178.15 272.41 178.15H302.01C303.83 178.15 305.52 176.89 305.8 174.92ZM170.57 123.02C168.75 132.42 165.24 139.15 160.33 142.94C155.28 146.87 147.14 148.83 136.34 148.83H123.3L132.7 100.3H149.53C161.87 100.3 166.92 102.97 168.89 105.21C171.7 108.29 172.26 114.47 170.57 123.02Z" fill="white"/>
</g>
<mask id="mask9_568_156" style="mask-type:luminance" maskUnits="userSpaceOnUse" x="-1" y="0" width="514" height="270">
<path d="M512.56 0.839966H-0.419922V269.89H512.56V0.839966Z" fill="white"/>
</mask>
<g mask="url(#mask9_568_156)">
<path d="M430.5 85.85C421.94 76.03 408.48 71.12 390.24 71.12H333.71C331.75 71.12 330.2 72.52 329.78 74.35L303.69 209.29C303.41 210.41 303.83 211.67 304.53 212.66C305.23 213.64 306.35 214.06 307.62 214.06H337.08C339.04 214.06 340.59 212.66 341.01 210.83L347.18 178.15H369.06C380.56 178.15 390.24 176.89 397.68 174.5C405.4 171.98 412.41 167.77 418.72 161.88C423.91 157.11 428.26 151.78 431.48 145.89C434.71 140.14 437.09 133.55 438.35 126.67C441.86 109.42 439.2 95.81 430.5 85.85ZM400.06 123.02C398.24 132.42 394.73 139.15 389.82 142.94C384.77 146.87 376.63 148.83 365.83 148.83H352.78L362.18 100.3H379.01C391.35 100.3 396.4 102.97 398.37 105.21C401.18 108.29 401.74 114.47 400.06 123.02Z" fill="white"/>
</g>
<mask id="mask10_568_156" style="mask-type:luminance" maskUnits="userSpaceOnUse" x="-1" y="0" width="514" height="270">
<path d="M512.56 0.839966H-0.419922V269.89H512.56V0.839966Z" fill="white"/>
</mask>
<g mask="url(#mask10_568_156)">
<path d="M149.53 96.37C160.75 96.37 168.19 98.47 171.83 102.54C175.62 106.61 176.46 113.76 174.5 123.72C172.54 134.1 168.61 141.68 162.72 146.02C156.97 150.51 148.13 152.75 136.21 152.75H118.4L129.34 96.22H149.54V96.37H149.53ZM77.8501 210.13H107.31L114.32 174.22H139.57C150.65 174.22 159.77 173.1 167.06 170.71C174.21 168.33 180.81 164.4 186.56 158.93C191.47 154.44 195.54 149.39 198.48 143.92C201.57 138.45 203.67 132.42 204.93 125.82C208.02 109.83 205.63 97.34 197.92 88.37C190.06 79.39 177.72 75.04 160.75 75.04H104.22L77.8501 210.13Z" fill="#08090D"/>
</g>
<mask id="mask11_568_156" style="mask-type:luminance" maskUnits="userSpaceOnUse" x="-1" y="0" width="514" height="270">
<path d="M512.56 0.839966H-0.419922V269.89H512.56V0.839966Z" fill="white"/>
</mask>
<g mask="url(#mask11_568_156)">
<path d="M226.54 39.28H255.72L248.71 75.19H274.66C291.07 75.19 302.29 78 308.47 83.75C314.64 89.5 316.61 98.76 314.08 111.52L301.88 174.36H272.28L283.92 114.6C285.18 107.87 284.76 103.24 282.52 100.71C280.28 98.19 275.37 97.06 267.93 97.06H244.64L229.63 174.35H200.45L226.54 39.28Z" fill="#08090D"/>
</g>
<mask id="mask12_568_156" style="mask-type:luminance" maskUnits="userSpaceOnUse" x="-1" y="0" width="514" height="270">
<path d="M512.56 0.839966H-0.419922V269.89H512.56V0.839966Z" fill="white"/>
</mask>
<g mask="url(#mask12_568_156)">
<path d="M379.02 96.37C390.24 96.37 397.68 98.47 401.32 102.54C405.11 106.61 405.95 113.76 403.99 123.72C402.03 134.1 398.1 141.68 392.21 146.02C386.46 150.51 377.62 152.75 365.7 152.75H347.89L358.83 96.22H379.03V96.37H379.02ZM307.34 210.13H336.8L343.81 174.22H369.06C380.14 174.22 389.26 173.1 396.55 170.71C403.7 168.33 410.3 164.4 416.05 158.93C420.96 154.44 425.03 149.39 427.97 143.92C431.06 138.45 433.16 132.42 434.42 125.82C437.51 109.83 435.12 97.34 427.41 88.37C419.55 79.39 407.21 75.04 390.24 75.04H333.71L307.34 210.13Z" fill="#08090D"/>
</g>
</g>
<defs>
<radialGradient id="paint0_radial_568_156" cx="0" cy="0" r="1" gradientUnits="userSpaceOnUse" gradientTransform="translate(153.695 47.3715) rotate(33.9965) scale(336.172 336.172)">
<stop stop-color="#4A659B"/>
<stop offset="1" stop-color="#231F20"/>
</radialGradient>
<radialGradient id="paint1_radial_568_156" cx="0" cy="0" r="1" gradientUnits="userSpaceOnUse" gradientTransform="translate(153.669 47.352) rotate(33.9965) scale(168.086 168.086)">
<stop stop-color="white"/>
<stop offset="1" stop-color="#4A659B"/>
</radialGradient>
</defs>
</svg>
