<svg width="366" height="326" viewBox="0 0 366 326" fill="none" xmlns="http://www.w3.org/2000/svg">
<path d="M300.6 105.9C296.8 104.6 292.9 103.4 288.9 102.2C289.6 99.5 290.2 96.8 290.7 94.2C299.6 51 293.8 16.2 273.9 4.80005C254.9 -6.19995 223.7 5.30005 192.3 32.6C189.3 35.2 186.2 38 183.2 40.9C181.2 39 179.2 37.1 177.2 35.3C144.2 6.00005 111.2 -6.29996 91.4001 5.20004C72.4001 16.2 66.7001 48.9 74.7001 89.8C75.5001 93.8 76.4001 97.8 77.4001 101.9C72.7001 103.2 68.2001 104.6 63.9001 106.1C25.3001 119.6 0.600098 140.7 0.600098 162.6C0.600098 185.2 27.1001 207.9 67.3001 221.7C70.5001 222.8 73.8001 223.8 77.2001 224.8C76.1001 229.2 75.1001 233.6 74.3001 237.8C66.7001 278 72.6001 309.9 91.6001 320.9C111.2 332.2 144.1 320.6 176.1 292.6C178.6 290.4 181.2 288 183.7 285.6C187 288.8 190.3 291.8 193.6 294.6C224.6 321.3 255.3 332.1 274.2 321.1C293.8 309.8 300.1 275.5 291.9 233.7C291.3 230.5 290.5 227.3 289.7 223.9C292 223.2 294.3 222.5 296.5 221.8C338.3 207.9 365.6 185.5 365.6 162.6C365.5 140.7 340 119.5 300.6 105.9ZM291.5 207.1C289.5 207.8 287.5 208.4 285.4 209C280.8 194.4 274.5 178.8 266.9 162.8C274.2 147.1 280.2 131.8 284.7 117.2C288.4 118.3 292.1 119.4 295.6 120.6C329.4 132.2 350 149.4 350 162.7C349.9 176.8 327.7 195.1 291.5 207.1ZM276.5 236.8C280.2 255.3 280.7 271.9 278.3 285C276.1 296.7 271.8 304.5 266.3 307.7C254.8 314.4 230.2 305.7 203.7 282.9C200.7 280.3 197.6 277.5 194.5 274.5C204.8 263.3 215.1 250.2 225.1 235.7C242.7 234.1 259.4 231.6 274.5 228.1C275.3 231 276 233.9 276.5 236.8ZM124.9 306.5C113.7 310.5 104.7 310.6 99.3001 307.5C87.8001 300.9 83.0001 275.2 89.5001 240.8C90.2001 236.9 91.1001 232.8 92.2001 228.7C107.2 232 123.7 234.4 141.4 235.8C151.5 250 162.1 263.1 172.7 274.5C170.4 276.7 168.1 278.9 165.7 280.9C151.6 293.3 137.4 302.1 124.9 306.5ZM72.3001 207C54.5001 200.9 39.8001 193 29.7001 184.4C20.6001 176.6 16.1001 169 16.1001 162.7C16.1001 149.4 35.9001 132.5 69.0001 120.9C73.0001 119.5 77.2001 118.2 81.6001 116.9C86.2001 131.8 92.2001 147.3 99.4001 163C92.1001 178.9 86.0001 194.7 81.4001 209.8C78.2001 208.9 75.2001 208 72.3001 207ZM89.9001 86.9C83.0001 51.8 87.6001 25.4001 99.1001 18.8001C111.3 11.7001 138.3 21.8001 166.8 47.1001C168.6 48.7001 170.4 50.4 172.3 52.2C161.7 63.6 151.2 76.6 141.2 90.7C124 92.3 107.6 94.8 92.5001 98.3C91.5001 94.3 90.7001 90.5 89.9001 86.9ZM247.4 125.7C243.8 119.5 240.1 113.4 236.3 107.4C247.9 108.9 259.1 110.8 269.6 113.2C266.5 123.3 262.5 133.8 257.9 144.6C254.6 138.5 251.1 132.1 247.4 125.7ZM183.2 63.2C190.4 71 197.6 79.7001 204.7 89.1001C197.6 88.8001 190.3 88.6001 183 88.6001C175.8 88.6001 168.6 88.8001 161.5 89.1001C168.6 79.8001 175.9 71.1 183.2 63.2ZM118.6 125.9C115 132.2 111.6 138.5 108.3 144.8C103.8 134 99.9001 123.4 96.7001 113.2C107.1 110.9 118.2 109 129.8 107.5C125.9 113.4 122.2 119.6 118.6 125.9ZM130.1 219C118.1 217.7 106.9 215.9 96.5001 213.6C99.7001 203.2 103.7 192.4 108.3 181.4C111.6 187.7 115 194 118.6 200.3C122.3 206.7 126.1 212.9 130.1 219ZM183.6 263.3C176.2 255.3 168.8 246.5 161.6 237C168.6 237.3 175.7 237.4 183 237.4C190.4 237.4 197.8 237.2 205 236.9C197.9 246.6 190.7 255.4 183.6 263.3ZM258 180.8C262.9 191.9 267 202.7 270.3 212.9C259.7 215.3 248.3 217.3 236.3 218.7C240.1 212.7 243.8 206.5 247.5 200.1C251.2 193.7 254.7 187.3 258 180.8ZM233.9 192.4C228.2 202.3 222.3 211.7 216.4 220.7C205.6 221.5 194.4 221.9 183 221.9C171.6 221.9 160.6 221.5 150 220.9C143.8 211.9 137.8 202.4 132.2 192.6C126.5 182.8 121.3 173 116.6 163.2C121.3 153.4 126.5 143.5 132.1 133.8C137.7 124 143.7 114.6 149.8 105.6C160.7 104.8 171.8 104.4 183 104.4C194.3 104.4 205.4 104.8 216.3 105.7C222.3 114.6 228.2 124 233.9 133.8C239.6 143.7 244.9 153.5 249.6 163.1C244.9 172.6 239.6 182.5 233.9 192.4ZM266.1 18.3001C278.3 25.3001 283.1 53.8001 275.4 91.1001C274.9 93.5001 274.4 95.9 273.8 98.4C258.7 94.9 242.2 92.3 225 90.7C215 76.4 204.6 63.4 194.1 52.2C196.9 49.5 199.7 46.9 202.5 44.5C229.4 20.9 254.6 11.7001 266.1 18.3001ZM183 130.1C201 130.1 215.6 144.7 215.6 162.7C215.6 180.7 201 195.3 183 195.3C165 195.3 150.4 180.7 150.4 162.7C150.4 144.7 165 130.1 183 130.1Z" fill="#00D8FF"/>
</svg>
